<svg width="242" height="209" viewBox="0 0 242 209" fill="none" xmlns="http://www.w3.org/2000/svg">
<path d="M46.3368 178.791C58.312 197.025 82.0523 195.413 92.809 188.349C103.566 181.285 102.578 160.776 90.6027 142.542C52.1603 143.938 46.3368 106.5 19.0849 95.7002C8.32814 102.764 34.3616 160.556 46.3368 178.791Z" fill="#7C52F3"/>
<path d="M194.949 178.791C182.974 197.025 159.233 195.413 148.477 188.349C137.72 181.285 138.708 160.776 150.683 142.542C189.126 143.938 194.949 106.5 222.201 95.7002C232.958 102.764 206.924 160.556 194.949 178.791Z" fill="#7C52F3"/>
<path d="M87.0265 196.001C92.0908 193.531 92.457 187.397 91.0004 184.409C89.5437 181.422 84.2574 181.002 79.1931 183.471C78.2892 193.365 68.5074 193.628 64.8464 200.255C66.3031 203.243 81.9623 198.47 87.0265 196.001Z" fill="#7C52F3"/>
<path d="M150.973 196.001C145.908 193.531 145.542 187.397 146.999 184.409C148.456 181.422 153.742 181.002 158.806 183.471C159.71 193.365 169.492 193.628 173.153 200.255C171.696 203.243 156.037 198.47 150.973 196.001Z" fill="#7C52F3"/>
<path d="M105.7 190.548C108.952 185.947 106.323 180.392 103.609 178.474C100.895 176.555 96.0578 178.73 92.8055 183.33C96.7717 192.439 88.3223 197.375 88.2999 204.946C91.0139 206.864 102.447 195.148 105.7 190.548Z" fill="#7C52F3"/>
<path d="M132.3 190.548C129.047 185.947 131.677 180.392 134.391 178.474C137.105 176.555 141.941 178.73 145.194 183.33C141.228 192.439 149.677 197.375 149.699 204.946C146.985 206.864 135.552 195.148 132.3 190.548Z" fill="#7C52F3"/>
<path d="M120.267 184.42C121.395 178.899 116.754 174.871 113.498 174.205C110.242 173.54 106.687 177.475 105.559 182.995C112.853 189.741 107.1 197.657 110.123 204.598C113.38 205.264 119.138 189.94 120.267 184.42Z" fill="#7C52F3"/>
<path d="M117.733 184.42C116.604 178.899 121.245 174.871 124.501 174.205C127.758 173.54 131.312 177.475 132.44 182.995C125.147 189.741 130.899 197.657 127.876 204.598C124.619 205.264 118.861 189.94 117.733 184.42Z" fill="#7C52F3"/>
<path d="M18.9649 95.345C13.1269 101.895 15.7516 110.53 19.3224 113.712C22.8933 116.895 30.5206 114.165 36.3586 107.615C32.5648 93.493 45.0586 86.8218 47.8897 75.6467C44.3189 72.464 24.8028 88.7949 18.9649 95.345Z" fill="#7C52F3"/>
<path d="M222.321 95.345C228.159 101.895 225.534 110.53 221.963 113.712C218.392 116.895 210.765 114.165 204.927 107.615C208.721 93.493 196.227 86.8218 193.396 75.6467C196.967 72.464 216.483 88.7949 222.321 95.345Z" fill="#7C52F3"/>
<path d="M64.7514 200.274C66.2378 201.985 68.536 201.596 69.4685 200.785C70.401 199.975 69.9519 197.931 68.4655 196.221C64.7233 196.729 63.4244 193.31 60.6545 192.218C59.722 193.028 63.2651 198.564 64.7514 200.274Z" fill="#7C52F3"/>
<path d="M173.248 200.274C171.761 201.985 169.463 201.596 168.531 200.785C167.598 199.975 168.047 197.931 169.534 196.221C173.276 196.729 174.575 193.31 177.345 192.218C178.277 193.028 174.734 198.564 173.248 200.274Z" fill="#7C52F3"/>
<path d="M88.2258 205.008C90.3517 205.793 92.1795 204.347 92.6073 203.188C93.0351 202.029 91.6585 200.453 89.5327 199.668C86.4963 201.914 83.7127 199.541 80.759 199.916C80.3312 201.074 86.1 204.223 88.2258 205.008Z" fill="#7C52F3"/>
<path d="M149.773 205.008C147.648 205.793 145.82 204.347 145.392 203.188C144.964 202.029 146.341 200.453 148.467 199.668C151.503 201.914 154.287 199.541 157.24 199.915C157.668 201.074 151.899 204.223 149.773 205.008Z" fill="#7C52F3"/>
<path d="M110.081 204.685C112.343 204.549 113.435 202.49 113.361 201.257C113.286 200.023 111.392 199.134 109.13 199.27C107.253 202.547 103.75 201.493 101.196 203.024C101.271 204.257 107.819 204.821 110.081 204.685Z" fill="#7C52F3"/>
<path d="M127.919 204.685C125.657 204.549 124.565 202.49 124.639 201.257C124.713 200.023 126.607 199.134 128.869 199.27C130.746 202.547 134.249 201.493 136.803 203.024C136.729 204.257 130.181 204.821 127.919 204.685Z" fill="#7C52F3"/>
<circle cx="120" cy="59" r="8" fill="#7C52F3"/>
<path fill-rule="evenodd" clip-rule="evenodd" d="M171 143.518C171 199.548 159.478 194.028 142.677 185.978C135.711 182.64 127.837 178.867 119.5 178.867C111.163 178.867 103.289 182.64 96.3226 185.978C79.5216 194.028 68 199.548 68 143.518C68 64.2552 91.0574 0 119.5 0C147.943 0 171 64.2552 171 143.518ZM152 64.5C152 84.3822 137.449 96.5 119.5 96.5C101.551 96.5 87 84.3822 87 64.5C87 44.6178 101.551 20.5 119.5 20.5C137.449 20.5 152 44.6178 152 64.5ZM80.074 136.761L106.243 147.009V142.678L93.372 137.92L85.198 134.87V134.626L93.372 131.576L106.243 126.818V122.487L80.074 132.735V136.761ZM125.218 111.69L108.931 164.76H112.591L128.878 111.69H125.218ZM131.721 142.678V147.009L157.89 136.761V132.735L131.721 122.487V126.818L144.592 131.576L152.766 134.626V134.87L144.592 137.92L131.721 142.678Z" fill="#7C52F3"/>
</svg>
