<svg width="267" height="211" viewBox="0 0 267 211" fill="none" xmlns="http://www.w3.org/2000/svg">
<path d="M64.8304 154.57C70.2331 152.462 73.4748 149.816 74.7888 146.01C76.1028 142.204 78.3735 134.611 73.8751 133.058C64.4711 127.677 38.1396 127.326 35.8771 129.817C43.4639 135.122 67.9562 132.945 64.8304 154.57Z" fill="#5A41A3"/>
<path d="M33.4108 127.588C33.2552 128.85 32.8221 129.724 35.4765 130.998C40.1924 131.343 41.0015 133.091 39.9587 128.672C31.2067 128.882 35.8297 118.962 33.0655 118.634C31.7414 118.477 33.6441 125.696 33.4108 127.588Z" fill="#5A41A3"/>
<path d="M40.6866 119.685C40.8195 119.069 40.4609 118.127 39.4035 118.047C38.3462 117.967 38.8581 118.579 39.1671 119.66C39.3764 119.875 39.6818 122.45 40.4837 122.648C40.6164 120.894 40.5536 120.301 40.6866 119.685Z" fill="#5A41A3"/>
<path d="M34.3603 120.509C34.5912 119.327 36.6189 117.091 36.4766 116.893C36.3343 116.694 34.0038 117.132 33.0499 117.816C32.0961 118.5 32.9875 123.081 33.1298 123.28C33.2721 123.479 34.2875 121.962 34.3603 120.509Z" fill="#5A41A3"/>
<path d="M36.5108 118.192C37.7046 118.036 40.4689 119.248 40.612 119.051C40.7551 118.853 39.7758 117.223 38.8246 116.536C37.8735 115.848 33.6356 117.707 33.4926 117.905C33.3495 118.103 35.1099 118.584 36.5108 118.192Z" fill="#5A41A3"/>
<path d="M195.222 125.134C189.729 133.92 188.819 137.091 190.998 143.948C193.177 150.805 193.794 157.416 201.897 154.841C221.115 152.517 243.984 121.678 238.993 119.759C221.715 132.429 207.892 159.938 195.222 125.134Z" fill="#5A41A3"/>
<path d="M244.368 119.375C242.89 118.165 242.121 116.926 238.418 119.164C234.275 124.688 229.878 125.922 236.305 128.206C242.916 117.268 253.413 129.313 256 126.177C257.24 124.674 246.586 121.189 244.368 119.375Z" fill="#5A41A3"/>
<path d="M259.106 112.749C260.232 112.729 261.758 113.683 261.533 115.564C261.307 117.445 260.413 116.336 258.625 115.421C258.32 114.98 253.911 113.553 253.842 112.079C256.963 112.454 257.98 112.769 259.106 112.749Z" fill="#5A41A3"/>
<path d="M255.473 123.553C257.625 123.557 262.246 120.776 262.545 121.094C262.843 121.412 261.269 125.346 259.741 126.781C258.213 128.217 250.49 125.069 250.191 124.751C249.892 124.433 252.901 123.178 255.473 123.553Z" fill="#5A41A3"/>
<path d="M260.279 120.585C260.966 118.546 259.796 113.281 260.192 113.099C260.589 112.917 263.106 115.197 263.982 117.102C264.858 119.007 260.135 125.792 259.738 125.975C259.342 126.157 259.107 122.905 260.279 120.585Z" fill="#5A41A3"/>
<path d="M67.0098 151.238C76.5843 156.325 79.0681 158.721 80.6826 166.074C82.2971 173.427 85.198 179.74 76.5085 181.648C57.8801 189.599 21.0202 173.626 24.538 169.275C46.8237 171.713 73.744 189.403 67.0098 151.238Z" fill="#5A41A3"/>
<path d="M19.4667 171.74C20.1732 169.87 20.2219 168.346 24.7476 168.435C31.392 171.272 36.0218 170.089 31.3939 175.522C19.68 169.072 16.4732 185.478 12.4874 183.99C10.578 183.278 18.407 174.545 19.4667 171.74Z" fill="#5A41A3"/>
<path d="M2.64611 173.45C1.61525 174.021 0.73201 175.684 1.92085 177.27C3.10969 178.857 3.33979 177.384 4.48071 175.619C4.52547 175.06 7.77423 171.46 7.06513 170.088C4.43357 172.061 3.67698 172.878 2.64611 173.45Z" fill="#5A41A3"/>
<path d="M11.5915 181.337C9.64469 182.467 4.00229 182.366 3.89805 182.81C3.79381 183.255 7.27861 185.995 9.41461 186.496C11.5506 186.997 16.9009 180.103 17.0051 179.659C17.1093 179.214 13.7257 179.652 11.5915 181.337Z" fill="#5A41A3"/>
<path d="M5.68428 181.163C3.99522 179.676 2.29975 174.293 1.84509 174.335C1.39044 174.378 0.302758 177.761 0.505994 179.946C0.709229 182.13 8.54024 185.806 8.99489 185.764C9.44954 185.721 7.96027 182.652 5.68428 181.163Z" fill="#5A41A3"/>
<path d="M70.8772 148.463C76.1855 153.303 77.3853 155.25 77.212 160.234C77.0386 165.219 77.8618 169.748 71.9708 169.543C58.7066 171.582 37.6767 155.267 40.6504 153.052C54.5529 158.283 68.9206 174.066 70.8772 148.463Z" fill="#5A41A3"/>
<path d="M36.99 153.8C37.751 152.716 38.0332 151.746 40.9231 152.548C44.7209 155.462 47.8871 155.464 44.023 158.189C37.5659 152.123 32.8085 162.125 30.4951 160.515C29.3869 159.743 35.8484 155.426 36.99 153.8Z" fill="#5A41A3"/>
<path d="M25.9129 152.13C25.1573 152.327 24.3168 153.249 24.8188 154.463C25.3209 155.677 25.7109 154.769 26.7335 153.824C26.8542 153.473 29.5316 151.697 29.3021 150.7C27.2887 151.533 26.6686 151.933 25.9129 152.13Z" fill="#5A41A3"/>
<path d="M30.3566 158.664C28.9213 159.069 25.3165 158.076 25.1765 158.344C25.0364 158.612 26.8222 160.944 28.1108 161.617C29.3993 162.29 33.9673 158.746 34.1073 158.478C34.2474 158.209 32.0037 157.934 30.3566 158.664Z" fill="#5A41A3"/>
<path d="M26.5938 157.581C25.7545 156.348 25.5518 152.615 25.2531 152.567C24.9543 152.519 23.6995 154.512 23.4706 155.947C23.2417 157.383 27.6631 161.03 27.9618 161.078C28.2606 161.126 27.8097 158.911 26.5938 157.581Z" fill="#5A41A3"/>
<path d="M192.827 141.867C189.415 145.453 190.797 145.854 187.403 145.631C184.009 145.408 177.354 144.685 177.62 140.598C176.515 131.346 184.874 110.333 187.556 109.366C189.198 117.151 174.968 137.155 192.827 141.867Z" fill="#5A41A3"/>
<path d="M186.629 106.667C187.662 106.964 188.485 106.911 188.607 109.441C187.329 113.298 188.425 114.522 185.326 112.224C188.359 105.349 179.121 105.718 179.772 103.416C180.084 102.313 185.08 106.223 186.629 106.667Z" fill="#5A41A3"/>
<path d="M178.091 109.813C177.568 109.714 176.953 109.116 177.237 108.25C177.522 107.385 177.83 107.994 178.57 108.599C178.669 108.836 180.574 109.935 180.465 110.638C179.056 110.159 178.615 109.913 178.091 109.813Z" fill="#5A41A3"/>
<path d="M180.807 105.067C179.812 104.857 177.406 105.722 177.298 105.544C177.19 105.365 178.295 103.661 179.14 103.131C179.985 102.602 183.26 104.833 183.368 105.012C183.476 105.191 181.962 105.492 180.807 105.067Z" fill="#5A41A3"/>
<path d="M178.298 106.003C177.785 106.898 177.823 109.495 177.622 109.543C177.421 109.591 176.474 108.272 176.25 107.288C176.027 106.305 178.863 103.56 179.064 103.512C179.265 103.464 179.063 105.021 178.298 106.003Z" fill="#5A41A3"/>
<path d="M206.391 152.152C196.474 167.071 186.358 175.116 174.005 176.578C161.653 178.041 137.243 179.901 135.515 165.303C125.46 133.381 141.715 53.6767 150.722 48.4866C161.744 74.8737 139.066 147.364 206.391 152.152Z" fill="#5A41A3"/>
<path d="M145.618 39.577C149.528 39.9371 152.452 39.2051 154.552 48.0546C152.49 62.5143 157.236 66.1066 144.582 60.0524C150.971 33.7754 117.991 41.2044 118.82 32.6465C119.218 28.5468 139.753 39.0367 145.618 39.577Z" fill="#5A41A3"/>
<path d="M116.98 56.339C115.032 56.335 112.427 54.6337 112.881 51.3897C113.335 48.1458 114.843 50.093 117.903 51.7363C118.414 52.5096 125.987 55.1252 126.056 57.6755C120.674 56.9222 118.927 56.343 116.98 56.339Z" fill="#5A41A3"/>
<path d="M123.627 37.7873C119.909 37.707 111.826 42.3564 111.321 41.7964C110.815 41.2364 113.67 34.4905 116.361 32.0612C119.052 29.6319 132.294 35.3357 132.8 35.8957C133.305 36.4557 128.06 38.5229 123.627 37.7873Z" fill="#5A41A3"/>
<path d="M115.219 42.7539C113.963 46.2542 115.805 55.3951 115.114 55.6968C114.422 55.9984 110.148 51.971 108.699 48.6482C107.25 45.3253 115.646 33.7572 116.338 33.4555C117.029 33.1539 117.324 38.7837 115.219 42.7539Z" fill="#5A41A3"/>
<path d="M189.98 185.414C188.768 180.055 189.124 176.107 191.414 173.056C193.704 170.005 198.459 164.194 202.064 166.9C211.277 171.426 225.525 191.905 224.771 195.002C216.581 191.863 205.294 171.486 189.98 185.414Z" fill="#5A41A3"/>
<path d="M227.828 195.755C226.921 196.547 226.464 197.351 224.056 195.943C221.283 192.425 219.481 192.718 223.503 191.191C227.983 198.171 233.315 189.279 235.039 191.275C235.864 192.231 229.19 194.568 227.828 195.755Z" fill="#5A41A3"/>
<path d="M230.17 185.851C230.583 185.42 231.512 185.202 232.136 185.989C232.76 186.777 232.009 186.699 230.996 187.031C230.716 186.98 228.533 188.107 227.952 187.583C229.259 186.548 229.757 186.283 230.17 185.851Z" fill="#5A41A3"/>
<path d="M232.88 191.254C233.685 190.445 234.364 187.667 234.595 187.674C234.827 187.68 235.72 189.742 235.689 190.853C235.659 191.964 231.59 193.696 231.358 193.69C231.127 193.683 231.779 192.082 232.88 191.254Z" fill="#5A41A3"/>
<path d="M233.558 188.336C233.047 187.317 230.628 185.791 230.708 185.573C230.787 185.356 232.586 185.26 233.63 185.642C234.674 186.023 235.464 190.335 235.385 190.553C235.305 190.77 233.993 189.644 233.558 188.336Z" fill="#5A41A3"/>
<path d="M232.502 59.0966C248.158 63.0933 221.542 181.736 171.18 198.48C117.168 205.742 62.3715 205.995 62.3715 154.599C62.3715 103.203 94.6106 150.602 145.871 150.602C197.131 150.602 216.845 55.0998 232.502 59.0966Z" fill="#7C52F3"/>
<path d="M212.033 14.361C214.423 10.7609 220.759 8.01964 226.208 12.8282C231.657 17.6368 226.208 18.047 219.424 21.7C217.367 21.7 203.262 32.5195 198.457 29.5269C206.434 20.4869 209.643 17.9612 212.033 14.361Z" fill="#7C52F3"/>
<path d="M237.77 67.9406C237.77 76.4981 230.119 90.5871 228.32 90.5871C226.521 90.5871 221.02 77.8393 221.02 69.2818C221.02 60.7243 250.395 43.6187 252.193 43.6187C253.992 43.6187 237.77 59.3831 237.77 67.9406Z" fill="#7C52F3"/>
<path d="M238.242 49.3592C242.939 42.5749 244.22 21.9253 245.875 21.6745C247.53 21.4236 254.388 32.5027 255.593 40.4552C256.798 48.4076 232.179 68.401 230.524 68.6518C228.869 68.9027 231.458 56.6654 238.242 49.3592Z" fill="#7C52F3"/>
<path d="M239.333 27.7203C234.391 21.1125 215.217 13.3419 215.504 11.6928C215.792 10.0436 228.475 7.0585 236.399 8.44024C244.322 9.82198 255.465 39.5154 255.177 41.1646C254.89 42.8137 244.108 36.4732 239.333 27.7203Z" fill="#7C52F3"/>
<path d="M87.7171 94.8265C89.8346 97.7253 90.2857 101 88.7248 102.14C87.1639 103.28 84.182 101.854 82.0646 98.9555C79.9471 96.0567 81.2655 95.205 82.8264 94.0648C84.3873 92.9246 85.5997 91.9277 87.7171 94.8265Z" fill="#5A41A3"/>
<path d="M98.2683 117.338C97.4714 113.838 95.2974 111.348 93.4127 111.777C91.5279 112.206 90.646 115.392 91.443 118.892C92.2399 122.392 93.7479 121.957 95.6326 121.527C97.5174 121.098 99.0652 120.838 98.2683 117.338Z" fill="#5A41A3"/>
<path d="M102.268 117.338C101.471 113.838 99.2974 111.348 97.4127 111.777C95.5279 112.206 94.646 115.392 95.443 118.892C96.2399 122.392 97.7479 121.957 99.6326 121.527C101.517 121.098 103.065 120.838 102.268 117.338Z" fill="#5A41A3"/>
<path d="M106.268 117.338C105.471 113.838 103.297 111.348 101.413 111.777C99.5279 112.206 98.646 115.392 99.443 118.892C100.24 122.392 101.748 121.957 103.633 121.527C105.517 121.098 107.065 120.838 106.268 117.338Z" fill="#5A41A3"/>
<path d="M110.324 115.87C109.101 112.495 106.637 110.293 104.819 110.951C103.002 111.61 102.52 114.88 103.743 118.255C104.966 121.63 106.409 121.012 108.226 120.353C110.043 119.695 111.547 119.245 110.324 115.87Z" fill="#5A41A3"/>
<path d="M114.175 114.806C112.561 111.599 109.853 109.705 108.126 110.574C106.4 111.444 106.309 114.748 107.923 117.954C109.538 121.16 110.897 120.375 112.623 119.506C114.35 118.636 115.79 118.012 114.175 114.806Z" fill="#5A41A3"/>
<path d="M116.801 113.119C115.591 109.74 113.578 107.37 112.305 107.826C111.032 108.281 110.981 111.391 112.191 114.77C113.402 118.15 114.403 117.696 115.676 117.24C116.949 116.784 118.012 116.499 116.801 113.119Z" fill="#5A41A3"/>
<path d="M92.823 92.1746C94.3352 95.4303 94.1399 98.7297 92.3868 99.544C90.6337 100.358 87.9866 98.379 86.4744 95.1233C84.9622 91.8676 86.4213 91.289 88.1744 90.4747C89.9275 89.6604 91.3108 88.9188 92.823 92.1746Z" fill="#5A41A3"/>
<path d="M97.7584 90.3094C98.9278 93.7033 98.3942 96.9651 96.5666 97.5948C94.7391 98.2245 92.3096 95.9836 91.1402 92.5896C89.9708 89.1957 91.4816 88.7702 93.3092 88.1405C95.1367 87.5108 96.589 86.9154 97.7584 90.3094Z" fill="#5A41A3"/>
<path d="M102.758 88.3094C103.928 91.7033 103.394 94.9651 101.567 95.5948C99.7391 96.2245 97.3096 93.9836 96.1402 90.5896C94.9708 87.1957 96.4816 86.7702 98.3092 86.1405C100.137 85.5108 101.589 84.9154 102.758 88.3094Z" fill="#5A41A3"/>
<path d="M106.758 86.3094C107.928 89.7033 107.394 92.9651 105.567 93.5948C103.739 94.2245 101.31 91.9836 100.14 88.5896C98.9708 85.1957 100.482 84.7702 102.309 84.1405C104.137 83.5108 105.589 82.9154 106.758 86.3094Z" fill="#5A41A3"/>
<path d="M107.652 86.3981C108.821 89.7921 108.983 92.8143 108.013 93.1484C107.044 93.4826 105.31 91.0021 104.14 87.6081C102.971 84.2141 103.786 84.0282 104.756 83.6941C105.726 83.3599 106.483 83.0041 107.652 86.3981Z" fill="#5A41A3"/>
<path fill-rule="evenodd" clip-rule="evenodd" d="M149.145 150.976C149.145 176.34 126.551 192.726 100.611 192.726C74.6707 192.726 60.9484 179.993 60.9484 154.629C60.9484 149.408 60.4241 141.779 59.8176 132.956C57.4783 98.925 53.9176 47.1238 74.5171 47.1238C78.3336 46.722 81.7105 47.3109 84.735 48.7081C78.4542 48.8224 73.0753 52.0416 71.496 57.2298C69.4095 64.0843 71.393 75.8808 80.0612 78.5195C87.4911 80.7811 97.4205 75.5805 101.42 69.732C103.572 74.6206 105.525 80.0216 107.42 85.647C98.197 87.7834 83.1644 94.1468 83.1644 101.758C83.1644 111.128 94.6185 127.807 116.533 112.963C123.615 132.342 132.594 148.958 149.145 150.976Z" fill="#7C52F3"/>
<circle cx="87" cy="59" r="3" fill="#7C52F3"/>
</svg>
